<svg width="64" height="64" viewBox="0 0 64 64" fill="none" xmlns="http://www.w3.org/2000/svg">
    <path fill-rule="evenodd" clip-rule="evenodd" d="M62.7929 29.1489L34.8495 1.20714C33.2414 -0.402379 30.6313 -0.402379 29.0211 1.20714L23.2187 7.00968L30.5793 14.3705C32.2899 13.7925 34.2512 14.1802 35.6149 15.5439C36.985 16.9161 37.3698 18.8942 36.7778 20.6105L43.8716 27.7044C45.5878 27.1132 47.5681 27.4959 48.9388 28.8687C50.8545 30.7837 50.8545 33.8876 48.9388 35.804C47.0225 37.7204 43.9187 37.7204 42.0016 35.804C40.5607 34.3616 40.2046 32.2451 40.9342 30.4698L34.3186 23.8541L34.3179 41.2638C34.7849 41.4956 35.2259 41.8039 35.6149 42.1915C37.5306 44.1065 37.5306 47.2103 35.6149 49.1281C33.6986 51.0438 30.5934 51.0438 28.6798 49.1281C26.7642 47.2103 26.7642 44.1065 28.6798 42.1915C29.1531 41.7189 29.7008 41.3614 30.2851 41.1213V23.5493C29.7008 23.3106 29.1538 22.9553 28.6798 22.4791C27.2283 21.0297 26.8793 18.8999 27.623 17.1176L20.3677 9.86074L1.20764 29.0197C-0.402547 30.6306 -0.402547 33.2408 1.20764 34.8504L29.151 62.7929C30.7598 64.4024 33.3692 64.4024 34.9801 62.7929L62.7929 34.9803C64.4024 33.3701 64.4024 30.7585 62.7929 29.1489Z" fill="#DE4C36"/>
</svg>
