<svg width="64" height="64" viewBox="0 0 64 64" fill="none" xmlns="http://www.w3.org/2000/svg">
    <g clip-path="url(#clip0_102_1538)">
        <path d="M23.7015 49.4947C23.7015 49.4947 21.2558 50.917 25.442 51.3983C30.5136 51.9768 33.1055 51.8939 38.6944 50.8361C38.6944 50.8361 40.1638 51.7574 42.2158 52.5554C29.6871 57.925 13.8609 52.2444 23.7015 49.4947Z" fill="#5382A1"/>
        <path d="M22.1709 42.4878C22.1709 42.4878 19.4278 44.5183 23.6171 44.9516C29.0347 45.5105 33.313 45.5562 40.7162 44.1307C40.7162 44.1307 41.7402 45.1688 43.3503 45.7365C28.2024 50.1659 11.3302 46.0858 22.1709 42.4878Z" fill="#5382A1"/>
        <path d="M35.0771 30.6016C38.1642 34.1558 34.266 37.3541 34.266 37.3541C34.266 37.3541 42.1046 33.3076 38.5047 28.2404C35.1425 23.5149 32.5641 21.167 46.5223 13.0717C46.5223 13.0717 24.6125 18.5438 35.0771 30.6016Z" fill="#E76F00"/>
        <path d="M51.6473 54.6775C51.6473 54.6775 53.4572 56.1688 49.6541 57.3225C42.4224 59.5132 19.5548 60.1748 13.2023 57.4098C10.9188 56.4163 15.2011 55.0377 16.5481 54.7484C17.953 54.4438 18.7558 54.5005 18.7558 54.5005C16.2163 52.7115 2.34117 58.0133 11.708 59.5317C37.2525 63.6743 58.2733 57.6663 51.6473 54.6775Z" fill="#5382A1"/>
        <path d="M24.878 35.2277C24.878 35.2277 13.2461 37.9905 20.7588 38.9938C23.931 39.4185 30.2545 39.3224 36.1447 38.8289C40.9585 38.4228 45.7921 37.5594 45.7921 37.5594C45.7921 37.5594 44.0947 38.2863 42.8667 39.1249C31.0547 42.2314 8.23617 40.7862 14.8053 37.6086C20.3609 34.9231 24.878 35.2277 24.878 35.2277Z" fill="#5382A1"/>
        <path d="M45.744 46.8912C57.7514 40.6517 52.1997 34.6555 48.3246 35.4634C47.3748 35.661 46.9513 35.8323 46.9513 35.8323C46.9513 35.8323 47.3039 35.28 47.9774 35.0409C55.6435 32.3458 61.5392 42.9899 45.5027 47.2056C45.5027 47.2058 45.6885 47.0397 45.744 46.8912Z" fill="#5382A1"/>
        <path d="M38.5049 0C38.5049 0 45.1548 6.65214 32.1977 16.8812C21.8075 25.0868 29.8285 29.7653 32.1934 35.1108C26.1285 29.6387 21.6776 24.8216 24.6636 20.3383C29.0463 13.7573 41.188 10.5665 38.5049 0Z" fill="#E76F00"/>
        <path d="M26.0577 63.7988C37.5833 64.5366 55.2822 63.3895 55.7014 57.9359C55.7014 57.9359 54.8956 60.0033 46.1761 61.6452C36.3387 63.4964 24.2057 63.2803 17.0095 62.0938C17.0097 62.0937 18.4827 63.3131 26.0577 63.7988Z" fill="#5382A1"/>
    </g>
    <defs>
        <clipPath id="clip0_102_1538">
            <rect width="64" height="64" fill="white"/>
        </clipPath>
    </defs>
</svg>
