<svg width="64" height="64" viewBox="0 0 64 64" fill="none" xmlns="http://www.w3.org/2000/svg">
    <g clip-path="url(#clip0_308_1393)">
        <path d="M56.5541 60.7413C58.8176 59.766 61.5164 59.411 64.9987 59.4995C64.9007 58.8357 63.6564 58.0474 62.7447 57.4698C62.4387 57.276 62.1702 57.1058 61.9951 56.9722C60.6022 55.9523 59.1221 54.8877 57.6423 53.9569C57.1656 53.6601 56.4792 53.4125 55.8187 53.1743C55.3938 53.021 54.9795 52.8715 54.6387 52.7153C54.2905 52.5708 53.8163 52.4262 53.3042 52.2701C52.0879 51.8994 50.6585 51.4637 50.1988 50.8087C49.0152 49.2411 48.1893 47.3456 47.3644 45.4527C47.2792 45.2572 47.194 45.0617 47.1084 44.8666C46.6767 43.8611 46.1963 42.8359 45.7133 41.8048C45.1738 40.6533 44.6309 39.4945 44.1486 38.3481C43.9384 37.8811 43.7785 37.4396 43.6212 37.005C43.4201 36.4493 43.223 35.9049 42.9298 35.3328C39.752 29.0805 35.0513 23.8478 29.349 20.1674C27.477 18.9701 25.388 17.8612 23.0808 17.1076C22.3762 16.8924 21.5957 16.8578 20.8075 16.8228C20.1348 16.7929 19.4565 16.7628 18.8151 16.62H17.9008C17.373 16.4706 16.9045 16.0395 16.4687 15.6384C16.2575 15.4441 16.054 15.2569 15.8552 15.1122C14.5057 14.1811 13.1564 13.5599 11.5458 12.895C10.98 12.6291 9.36941 12.0082 8.8036 12.4961C8.45515 12.5849 8.28121 12.7178 8.19409 13.0725C7.84592 13.6047 8.15095 14.4028 8.36832 14.8905C8.79977 15.8282 9.34533 16.5142 9.90438 17.2171C10.1914 17.578 10.4819 17.9433 10.7624 18.3495C10.8963 18.5421 11.036 18.7391 11.178 18.9394C11.8205 19.8455 12.511 20.8193 12.9388 21.7637C13.5425 23.0885 13.9728 24.4891 14.4015 25.8845C14.7765 27.1047 15.1502 28.3211 15.6376 29.4795C16.0292 30.4108 16.6387 31.4749 17.2045 32.3175C17.3819 32.5641 17.6133 32.7863 17.8475 33.0112C18.245 33.393 18.6508 33.7827 18.8151 34.313C19.2384 35.0316 18.4612 37.0896 17.989 38.34C17.8785 38.6326 17.7847 38.8811 17.7269 39.0577C16.595 42.6936 16.8126 47.7489 18.1185 50.8971C18.1651 51.008 18.2115 51.1208 18.2581 51.2343C18.7338 52.3915 19.2443 53.6336 20.5125 53.9569C20.552 53.9167 20.5558 53.9038 20.5642 53.8977C20.5745 53.8902 20.5916 53.8925 20.6868 53.8681C20.7504 53.3584 20.8046 52.8526 20.8581 52.3539C21.0603 50.4663 21.2517 48.6807 21.9055 47.1725C22.217 46.3937 22.731 45.765 23.2319 45.1522C23.5011 44.8228 23.7666 44.4981 23.9948 44.1572C24.271 44.326 24.372 44.709 24.4756 45.1024C24.5353 45.3289 24.5959 45.5589 24.6914 45.7534C24.7325 45.8532 24.7738 45.9538 24.8154 46.0549C25.3462 47.3462 25.9173 48.7356 26.5631 50.0102C27.9994 52.8483 29.6103 55.5973 31.4383 58.0807C32.0475 58.9676 32.9183 59.9432 33.7018 60.7413C33.8209 60.8475 33.9452 60.9382 34.0675 61.0274C34.3027 61.199 34.531 61.3656 34.7029 61.6282H34.79V61.7614C33.9636 61.4526 33.329 60.7887 32.7096 60.1405C32.3502 59.7645 31.9959 59.3938 31.6122 59.1008C29.6535 57.593 27.3031 55.3314 25.9536 53.1587C25.5285 52.2261 25.079 51.3184 24.6232 50.3982C24.4723 50.0934 24.3207 49.7872 24.169 49.4783C24.169 49.4783 24.1692 49.4338 24.169 49.3896C24.0027 49.6156 23.9777 49.8415 23.9476 50.1134C23.9305 50.2682 23.9117 50.438 23.8643 50.6311C23.7029 51.2634 23.623 51.9208 23.5457 52.5562C23.352 54.1492 23.1752 55.6035 21.775 56.174C19.5551 57.1054 17.9008 54.666 17.2045 53.5577C14.9847 49.8773 14.3752 43.6692 15.9421 38.6585C16.0633 38.2729 16.1476 37.8604 16.2317 37.449C16.3894 36.678 16.5462 35.9111 16.9434 35.3328C16.8561 34.7999 16.5555 34.5239 16.2617 34.2541C16.1155 34.1198 15.9709 33.9871 15.8552 33.825C15.2457 32.9827 14.7236 32.0071 14.2446 31.076C13.5487 29.6919 13.0043 28.1021 12.4767 26.5613C12.3113 26.0781 12.1474 25.5996 11.9811 25.1339C11.8325 24.7448 11.7357 24.3555 11.6403 23.9715C11.5399 23.5678 11.4409 23.1698 11.2848 22.7838C10.8733 21.8755 10.1919 20.9674 9.55934 20.1244C9.38882 19.8971 9.22185 19.6746 9.06467 19.458C8.8951 19.2101 8.67057 18.9228 8.42029 18.6025C7.19297 17.0319 5.34622 14.6685 6.32246 12.2744C8.15069 7.70714 14.5497 11.1656 17.0303 12.7621C17.2783 12.9246 17.5408 13.1604 17.8119 13.404C18.2068 13.7588 18.6198 14.13 19.0327 14.3141C19.577 14.3363 20.1212 14.3696 20.6655 14.4028C21.2095 14.4361 21.7535 14.4693 22.2974 14.4916C22.4756 14.534 22.6528 14.5759 22.8289 14.6174C24.6746 15.0528 26.3986 15.4595 27.8689 16.3095C35.3558 20.7883 40.2311 25.3556 44.7144 32.8939C45.3231 33.9084 45.7383 34.9768 46.1613 36.0647C46.4038 36.6886 46.6488 37.3189 46.9342 37.9491C48.0224 40.521 49.2417 43.2255 50.5036 45.6647C50.6622 45.988 50.8106 46.3218 50.9593 46.6562C51.3409 47.5145 51.7244 48.3771 52.2884 49.0791C52.4911 49.3743 52.9447 49.5318 53.3793 49.6827C53.5977 49.7585 53.8113 49.8327 53.9858 49.9218C54.5488 50.2172 55.1586 50.4854 55.7733 50.7557C56.7269 51.1751 57.6923 51.5997 58.5129 52.1389C61.0374 53.7352 63.4752 55.6416 65.695 57.5931C66.1438 58.0021 66.5157 58.5024 66.8871 59.002C67.2003 59.4233 67.5132 59.8442 67.8714 60.2094V60.6083C67.1751 60.8301 66.4785 61.0518 65.7821 61.2293C65.0244 61.4277 64.3098 61.5054 63.6008 61.5826C62.8842 61.6606 62.1733 61.738 61.4293 61.9386C61.3355 61.966 61.2394 61.9942 61.1415 62.023C60.2847 62.2748 59.2852 62.5687 58.4258 62.6483C58.4692 62.6925 58.5129 62.7368 58.5129 62.7368C58.9324 63.9534 60.7164 64.9993 62.1784 65.8565C62.6881 66.1553 63.1586 66.4312 63.5186 66.6834C65.2163 67.925 66.7832 69.4327 68.0457 71.1619C68.2627 71.383 68.4797 71.5931 68.6968 71.8031C68.9151 72.0144 69.1334 72.2256 69.3515 72.448C69.4989 72.6627 69.5954 72.9085 69.6903 73.1504C69.7913 73.408 69.8906 73.6611 70.0479 73.867V74C69.667 73.8615 69.4053 73.5843 69.1456 73.3094C68.9897 73.1444 68.8346 72.9802 68.6549 72.8472C68.2449 72.5624 67.835 72.2532 67.4252 71.944C66.8776 71.5309 66.33 71.1178 65.7821 70.763C64.9399 70.221 64.0299 69.7941 63.1153 69.3651C62.2339 68.9516 61.3483 68.5361 60.5151 68.0137C59.5576 67.3928 58.6434 66.6834 57.7294 65.974C56.9023 65.3531 55.9886 64.1555 55.4659 63.2689C55.3342 63.0582 55.2513 62.8308 55.1714 62.6119C55.0666 62.3244 54.9671 62.0514 54.7693 61.8499C54.8344 61.2199 55.4352 61.061 56.0071 60.9096C56.1999 60.8586 56.3895 60.8084 56.5541 60.7413Z" fill="#00546B"/>
        <path d="M18.8149 21.1873C19.3373 21.0543 19.8594 20.9653 20.5994 20.9653C20.7374 21.1059 20.9096 21.2256 21.0834 21.3464C21.3483 21.5306 21.6171 21.7175 21.7747 21.9854C21.8714 22.1233 21.9337 22.2612 21.9961 22.3992C22.074 22.5717 22.1519 22.7442 22.2971 22.9167C22.2971 23.9808 21.9927 24.6902 21.3829 25.1339C21.3829 25.1339 21.3395 25.1781 21.296 25.2226C21.1221 24.8683 20.9591 24.514 20.7961 24.1597C20.6326 23.8044 20.4692 23.4492 20.2947 23.0939C20.1252 22.8523 19.9293 22.6307 19.7328 22.4084C19.4246 22.0597 19.1148 21.7091 18.902 21.276H18.8149V21.1873Z" fill="#00546B"/>
    </g>
    <defs>
        <clipPath id="clip0_308_1393">
            <rect width="64" height="64" fill="white"/>
        </clipPath>
    </defs>
</svg>
