<svg width="64" height="64" viewBox="0 0 64 64" fill="none" xmlns="http://www.w3.org/2000/svg">
    <g clip-path="url(#clip0_102_1119)">
        <path d="M63.9092 31.9208C63.9092 49.5491 49.6178 63.8408 31.9884 63.8408C14.3585 63.8408 0.0673828 49.5491 0.0673828 31.9208C0.0673828 14.2913 14.3587 0 31.9884 0C49.618 0 63.9092 14.2913 63.9092 31.9208Z" fill="#DD4814"/>
        <path d="M10.2832 27.658C7.92831 27.658 6.02051 29.566 6.02051 31.9207C6.02051 34.2742 7.92831 36.182 10.2832 36.182C12.6367 36.182 14.5445 34.2742 14.5445 31.9207C14.5445 29.566 12.6367 27.658 10.2832 27.658ZM40.7119 47.0277C38.6735 48.205 37.9745 50.8101 39.1521 52.8474C40.3281 54.8858 42.9331 55.5846 44.9715 54.4072C47.0098 53.2312 47.7087 50.6262 46.5314 48.5875C45.3554 46.5504 42.7488 45.8517 40.7119 47.0277ZM19.5403 31.9207C19.5403 27.7091 21.6322 23.9883 24.8331 21.7351L21.7174 16.5166C17.9887 19.009 15.2144 22.8177 14.0614 27.2784C15.4067 28.3761 16.2678 30.0472 16.2678 31.9205C16.2678 33.7927 15.4067 35.4638 14.0614 36.5615C15.2129 41.0235 17.9872 44.8324 21.7174 47.3248L24.8331 42.105C21.6322 39.8531 19.5403 36.1325 19.5403 31.9207ZM31.9884 19.4713C38.4916 19.4713 43.8271 24.4575 44.3871 30.8164L50.4598 30.7268C50.161 26.0323 48.1102 21.8179 44.959 18.7189C43.3385 19.3311 41.4667 19.2374 39.8489 18.3048C38.2283 17.3696 37.2122 15.7919 36.9344 14.0793C35.3593 13.6447 33.7017 13.4067 31.988 13.4067C29.0419 13.4067 26.2565 14.0987 23.7834 15.3227L26.7447 20.6293C28.3377 19.8879 30.1149 19.4713 31.9884 19.4713ZM31.9884 44.3688C30.1149 44.3688 28.3377 43.9519 26.7449 43.2108L23.7836 48.5172C26.2567 49.7427 29.0421 50.4349 31.9884 50.4349C33.7021 50.4349 35.3597 50.1967 36.9346 49.7607C37.2123 48.0481 38.2288 46.472 39.8491 45.5351C41.4681 44.601 43.3387 44.509 44.9592 45.1212C48.1104 42.0222 50.1612 37.8078 50.46 33.1132L44.3858 33.0237C43.8271 39.3843 38.4918 44.3688 31.9884 44.3688ZM40.7104 16.8111C42.7488 17.9882 45.354 17.291 46.5301 15.2525C47.7074 13.2141 47.0102 10.6089 44.9715 9.43136C42.9331 8.25534 40.3281 8.95408 39.1504 10.9925C37.9745 13.0298 38.6733 15.635 40.7104 16.8111Z" fill="white"/>
    </g>
    <defs>
        <clipPath id="clip0_102_1119">
            <rect width="64" height="64" fill="white"/>
        </clipPath>
    </defs>
</svg>
