<svg width="64" height="64" viewBox="0 0 64 64" fill="none" xmlns="http://www.w3.org/2000/svg">
    <g clip-path="url(#clip0_331_678)">
        <path d="M62.9236 25.5574L62.834 25.3282L54.1334 2.62616C53.9566 2.18092 53.6436 1.8029 53.2394 1.54606C52.832 1.28895 52.355 1.16462 51.874 1.19021C51.393 1.21581 50.9318 1.39008 50.554 1.68896C50.1798 1.98903 49.91 2.3996 49.783 2.86212L43.9006 20.8648H20.1018L14.2195 2.86212C14.0925 2.3996 13.8227 1.98903 13.4485 1.68896C13.0724 1.38807 12.6114 1.21249 12.1305 1.18686C11.6495 1.16123 11.1725 1.28684 10.7665 1.54606C10.3605 1.80185 10.0462 2.1801 9.8692 2.62616L1.15863 25.358L1.0689 25.584C-0.181507 28.858 -0.335208 32.4494 0.630904 35.8182C1.59702 39.187 3.63072 42.1512 6.42618 44.2648L6.45942 44.288L6.53586 44.3478L19.8061 54.2814L26.3664 59.25L30.3546 62.2708C30.823 62.6248 31.3942 62.8164 31.9814 62.8164C32.5684 62.8164 33.1396 62.6248 33.6082 62.2708L37.5962 59.25L44.1598 54.2814L57.5066 44.288L57.543 44.2614C60.348 42.1498 62.3898 39.1832 63.3604 35.809C64.3312 32.435 64.1778 28.8368 62.9236 25.5574Z" fill="#E24329"/>
        <path d="M62.924 25.5574L62.8344 25.3282C58.591 26.2026 54.5924 28.001 51.1228 30.5956L32.0166 45.0756C38.5304 50.001 44.2002 54.2814 44.2002 54.2814L57.5468 44.288L57.5834 44.2614C60.3814 42.1446 62.4152 39.1754 63.3786 35.8018C64.342 32.428 64.1824 28.8326 62.924 25.5574Z" fill="#FC6D26"/>
        <path d="M19.8164 54.2814L26.3668 59.25L30.3548 62.2708C30.8234 62.6248 31.3944 62.8164 31.9816 62.8164C32.5688 62.8164 33.14 62.6248 33.6084 62.2708L37.5964 59.25L44.1602 54.2814C44.1602 54.2814 38.4904 50.001 31.9766 45.0756L19.8164 54.2814Z" fill="#FCA326"/>
        <path d="M12.8703 30.609C9.40152 28.0134 5.40246 26.216 1.15867 25.3448L1.06893 25.5708C-0.184681 28.8464 -0.340072 32.4406 0.626158 35.8122C1.59239 39.1838 3.62792 42.1502 6.42622 44.2648L6.45946 44.288L6.5359 44.3478L19.8061 54.2814L32.0162 45.0756L12.8703 30.609Z" fill="#FC6D26"/>
    </g>
    <defs>
        <clipPath id="clip0_331_678">
            <rect width="64" height="64" fill="white"/>
        </clipPath>
    </defs>
</svg>
