<svg width="64" height="64" viewBox="0 0 64 64" fill="none" xmlns="http://www.w3.org/2000/svg">
    <g clip-path="url(#clip0_702_563)">
        <path d="M9.73582 9.00003C22.3806 -3.24957 42.599 -2.92028 54.8486 9.79033C56.2316 7.94631 57.4171 5.9047 58.2732 3.79725C62.2906 16.0468 64.7273 26.3207 63.8053 34.2895C63.3443 41.0071 60.71 47.4612 56.3633 52.5981C45.0358 66.0331 24.8832 67.7454 11.4481 56.4179L11.1911 56.1892L11.1774 56.1802C11.1354 56.1509 11.0939 56.1204 11.053 56.0886C10.9304 55.9932 10.819 55.8893 10.7189 55.7785L10.6829 55.7374L10.2627 55.3641C9.8529 55.0129 9.44312 54.6616 9.07959 54.2641L8.94553 54.1128C-3.30408 41.4681 -2.90893 21.2496 9.73582 9.00003ZM14.4776 51.8736C13.2922 50.9516 11.5798 51.0833 10.6578 52.2688C9.8471 53.3112 9.85109 54.7609 10.6698 55.7225L10.6829 55.7374L11.1911 56.1892L11.241 56.2232C12.3921 56.9801 13.9409 56.8237 14.8244 55.7538L14.8728 55.6934C15.7948 54.508 15.5972 52.7957 14.4776 51.8736ZM57.9439 7.09015C54.651 14.0052 46.4846 19.2739 39.4378 20.9203C32.7861 22.5009 26.9906 21.1838 20.8658 23.5547C6.90393 28.8892 7.16736 45.4854 14.8069 49.2393L15.2679 49.5028C15.2679 49.5028 20.7861 48.4056 26.2431 46.9566L26.7105 46.8316C28.8901 46.2442 31.0343 45.604 32.7861 44.9585C41.8746 41.5998 51.885 33.3017 55.1779 23.6864C53.4656 33.6968 44.8382 43.378 36.2108 47.7904C31.6007 50.1613 28.0444 50.6882 20.4707 53.3225C19.5487 53.6518 18.8242 53.9811 18.8242 53.9811C18.9167 53.9684 19.0091 53.9559 19.1013 53.9438L19.2853 53.9199L19.4684 53.8969C21.141 53.6896 22.644 53.586 22.644 53.586C33.3789 53.0591 50.2385 56.6154 58.0757 46.144C66.1103 35.475 61.632 18.2202 57.9439 7.09015Z" fill="#6DB33F"/>
        <path d="M14.4776 51.8736C15.5972 52.7957 15.7947 54.508 14.8727 55.6934C13.9507 56.8789 12.2384 57.0106 11.053 56.0886C9.86751 55.1665 9.7358 53.4542 10.6578 52.2688C11.5798 51.0833 13.2921 50.9516 14.4776 51.8736ZM57.9439 7.09015C61.632 18.2202 66.1103 35.475 58.0756 46.144C50.2385 56.6154 33.3788 53.0591 22.644 53.586C22.644 53.586 21.141 53.6896 19.4684 53.8969L19.2853 53.9199C19.1323 53.9395 18.9782 53.9599 18.8242 53.9811C18.8242 53.9811 19.5487 53.6518 20.4707 53.3225C28.0443 50.6882 31.6007 50.1613 36.2107 47.7904C44.8382 43.3779 53.4656 33.6968 55.1779 23.6864C51.885 33.3017 41.8745 41.5998 32.7861 44.9585C26.5296 47.2636 15.2679 49.5027 15.2679 49.5027L14.8069 49.2393C7.16733 45.4854 6.9039 28.8892 20.8658 23.5547C26.9906 21.1838 32.7861 22.5009 39.4378 20.9203C46.4846 19.2739 54.651 14.0052 57.9439 7.09015Z" fill="white"/>
    </g>
    <defs>
        <clipPath id="clip0_702_563">
            <rect width="64" height="64" fill="white"/>
        </clipPath>
    </defs>
</svg>
